<svg width="400" height="68" viewBox="0 0 400 68" fill="none" xmlns="http://www.w3.org/2000/svg">
<rect width="400" height="68" rx="8" fill="#292C34"/>
<path d="M44.5 25.25H23.5C23.2679 25.25 23.0454 25.3422 22.8813 25.5063C22.7172 25.6704 22.625 25.8929 22.625 26.125V41C22.625 41.4641 22.8094 41.9092 23.1376 42.2374C23.4658 42.5656 23.9109 42.75 24.375 42.75H43.625C44.0891 42.75 44.5342 42.5656 44.8624 42.2374C45.1906 41.9092 45.375 41.4641 45.375 41V26.125C45.375 25.8929 45.2828 25.6704 45.1187 25.5063C44.9546 25.3422 44.7321 25.25 44.5 25.25ZM42.2502 27L34 34.5633L25.7498 27H42.2502ZM43.625 41H24.375V28.1145L33.4083 36.3953C33.5697 36.5435 33.7809 36.6257 34 36.6257C34.2191 36.6257 34.4303 36.5435 34.5917 36.3953L43.625 28.1145V41Z" fill="#878EA1"/>
<path d="M61.136 40V29.328H68.448V31.328H63.728V33.648H67.824V35.664H63.728V38H68.448V40H61.136ZM70.7484 35.92V34.272H75.6284V35.92H70.7484ZM85.4823 34.56V40H83.0983V35.04C83.0983 34.8373 83.0663 34.6507 83.0023 34.48C82.9489 34.3093 82.8636 34.1653 82.7463 34.048C82.6289 33.92 82.4689 33.824 82.2663 33.76C82.0636 33.6853 81.8183 33.648 81.5303 33.648C81.2849 33.648 81.0556 33.68 80.8423 33.744C80.6396 33.7973 80.4743 33.856 80.3463 33.92V40H77.9622V32.592C78.1649 32.4853 78.4316 32.3787 78.7623 32.272C79.0929 32.1547 79.4556 32.0533 79.8503 31.968C80.2449 31.8827 80.6396 31.8133 81.0343 31.76C81.4396 31.7067 81.8129 31.68 82.1543 31.68C82.8796 31.68 83.4876 31.776 83.9783 31.968C84.4796 32.1493 84.8529 32.448 85.0983 32.864C85.3543 33.28 85.4823 33.8453 85.4823 34.56ZM83.0343 33.136C83.3649 32.848 83.7649 32.5973 84.2343 32.384C84.7036 32.16 85.1996 31.9893 85.7222 31.872C86.2449 31.744 86.7303 31.68 87.1783 31.68C87.9036 31.68 88.5116 31.776 89.0023 31.968C89.5036 32.1493 89.8769 32.448 90.1223 32.864C90.3783 33.28 90.5063 33.8453 90.5063 34.56V40H88.1223V35.04C88.1223 34.8373 88.0903 34.6507 88.0263 34.48C87.9729 34.3093 87.8876 34.1653 87.7703 34.048C87.6529 33.92 87.4929 33.824 87.2903 33.76C87.0876 33.6853 86.8423 33.648 86.5543 33.648C86.3089 33.648 86.0796 33.6853 85.8663 33.76C85.6636 33.824 85.4983 33.9093 85.3703 34.016L83.0343 33.136ZM95.7385 40.24C95.2478 40.24 94.7838 40.192 94.3465 40.096C93.9198 40.0107 93.5412 39.8667 93.2105 39.664C92.8905 39.4507 92.6398 39.168 92.4585 38.816C92.2772 38.4533 92.1865 38.0053 92.1865 37.472C92.1865 36.9707 92.2878 36.5333 92.4905 36.16C92.7038 35.7867 93.0238 35.4987 93.4505 35.296C93.8772 35.0933 94.4158 34.992 95.0665 34.992C95.4292 34.992 95.7812 35.0293 96.1225 35.104C96.4638 35.1787 96.7678 35.28 97.0345 35.408C97.3118 35.536 97.5305 35.6747 97.6905 35.824L97.7865 36.976C97.5732 36.848 97.3172 36.7467 97.0185 36.672C96.7198 36.5973 96.3998 36.56 96.0585 36.56C95.5358 36.56 95.1518 36.64 94.9065 36.8C94.6718 36.9493 94.5545 37.1893 94.5545 37.52C94.5545 37.7227 94.6132 37.904 94.7305 38.064C94.8478 38.224 95.0025 38.3467 95.1945 38.432C95.3972 38.5173 95.6052 38.56 95.8185 38.56C96.3625 38.56 96.7412 38.5227 96.9545 38.448C97.1785 38.3733 97.2905 38.224 97.2905 38V35.024C97.2905 34.5333 97.1305 34.1813 96.8105 33.968C96.5012 33.744 96.0585 33.632 95.4825 33.632C95.0132 33.632 94.5385 33.7173 94.0585 33.888C93.5892 34.048 93.2052 34.2453 92.9065 34.48V32.368C93.1838 32.1973 93.6105 32.0373 94.1865 31.888C94.7732 31.7387 95.4292 31.664 96.1545 31.664C96.4105 31.664 96.6932 31.6853 97.0025 31.728C97.3118 31.7707 97.6212 31.8507 97.9305 31.968C98.2398 32.0747 98.5225 32.2347 98.7785 32.448C99.0452 32.6613 99.2585 32.9333 99.4185 33.264C99.5785 33.5947 99.6585 34.0053 99.6585 34.496L99.6425 38.32C99.6425 38.7787 99.4878 39.152 99.1785 39.44C98.8692 39.7173 98.4212 39.92 97.8345 40.048C97.2585 40.176 96.5598 40.24 95.7385 40.24ZM101.823 40V32.016H104.207L104.223 40H101.823ZM101.775 30.8V28.96H104.239V30.8H101.775ZM108.721 40H106.353V28.848H108.721V40Z" fill="#C0C4CE"/>
<path d="M375.625 29V37.125C375.625 37.2908 375.559 37.4497 375.442 37.5669C375.325 37.6842 375.166 37.75 375 37.75C374.834 37.75 374.675 37.6842 374.558 37.5669C374.441 37.4497 374.375 37.2908 374.375 37.125V30.5086L365.442 39.4422C365.325 39.5595 365.166 39.6253 365 39.6253C364.834 39.6253 364.675 39.5595 364.558 39.4422C364.441 39.3249 364.375 39.1659 364.375 39C364.375 38.8341 364.441 38.6751 364.558 38.5578L373.491 29.625H366.875C366.709 29.625 366.55 29.5592 366.433 29.4419C366.316 29.3247 366.25 29.1658 366.25 29C366.25 28.8342 366.316 28.6753 366.433 28.5581C366.55 28.4408 366.709 28.375 366.875 28.375H375C375.166 28.375 375.325 28.4408 375.442 28.5581C375.559 28.6753 375.625 28.8342 375.625 29Z" fill="#3996DB"/>
</svg>
