<svg width="400" height="68" viewBox="0 0 400 68" fill="none" xmlns="http://www.w3.org/2000/svg">
<rect width="400" height="68" rx="8" fill="#292C34"/>
<g clip-path="url(#clip0_2149_2299)">
<path d="M42.7839 28.2775C43.0514 27.4148 43.1372 26.5059 43.0359 25.6084C42.9346 24.7108 42.6484 23.844 42.1955 23.0625C42.1187 22.9295 42.0082 22.819 41.8751 22.7422C41.7421 22.6654 41.5911 22.625 41.4375 22.625C40.4183 22.6229 39.4128 22.8591 38.5012 23.3149C37.5896 23.7707 36.7973 24.4334 36.1875 25.25H33.5625C32.9527 24.4334 32.1604 23.7707 31.2488 23.3149C30.3372 22.8591 29.3317 22.6229 28.3125 22.625C28.1589 22.625 28.0079 22.6654 27.8749 22.7422C27.7418 22.819 27.6313 22.9295 27.5545 23.0625C27.1016 23.844 26.8154 24.7108 26.7141 25.6084C26.6128 26.5059 26.6986 27.4148 26.9661 28.2775C26.4255 29.2211 26.1359 30.2876 26.125 31.375V32.25C26.1268 33.7305 26.6643 35.1604 27.6381 36.2755C28.6119 37.3907 29.9564 38.1158 31.4231 38.317C30.8244 39.0832 30.4994 40.0277 30.5 41V41.875H27.875C27.1788 41.875 26.5111 41.5985 26.0188 41.1062C25.5266 40.6139 25.25 39.9462 25.25 39.25C25.25 38.6755 25.1368 38.1066 24.917 37.5758C24.6971 37.045 24.3748 36.5627 23.9686 36.1564C23.5623 35.7502 23.08 35.4279 22.5492 35.208C22.0184 34.9882 21.4495 34.875 20.875 34.875C20.6429 34.875 20.4204 34.9672 20.2563 35.1313C20.0922 35.2954 20 35.5179 20 35.75C20 35.9821 20.0922 36.2046 20.2563 36.3687C20.4204 36.5328 20.6429 36.625 20.875 36.625C21.5712 36.625 22.2389 36.9016 22.7312 37.3939C23.2234 37.8861 23.5 38.5538 23.5 39.25C23.5 40.4103 23.9609 41.5231 24.7814 42.3436C25.6019 43.1641 26.7147 43.625 27.875 43.625H30.5V45.375C30.5 45.6071 30.5922 45.8296 30.7563 45.9937C30.9204 46.1578 31.1429 46.25 31.375 46.25C31.6071 46.25 31.8296 46.1578 31.9937 45.9937C32.1578 45.8296 32.25 45.6071 32.25 45.375V41C32.25 40.3038 32.5266 39.6361 33.0188 39.1439C33.5111 38.6516 34.1788 38.375 34.875 38.375C35.5712 38.375 36.2389 38.6516 36.7312 39.1439C37.2234 39.6361 37.5 40.3038 37.5 41V45.375C37.5 45.6071 37.5922 45.8296 37.7563 45.9937C37.9204 46.1578 38.1429 46.25 38.375 46.25C38.6071 46.25 38.8296 46.1578 38.9937 45.9937C39.1578 45.8296 39.25 45.6071 39.25 45.375V41C39.2506 40.0277 38.9256 39.0832 38.3269 38.317C39.7936 38.1158 41.1381 37.3907 42.1119 36.2755C43.0857 35.1604 43.6232 33.7305 43.625 32.25V31.375C43.6141 30.2876 43.3245 29.2211 42.7839 28.2775ZM41.875 32.25C41.875 33.4103 41.4141 34.5231 40.5936 35.3436C39.7731 36.1641 38.6603 36.625 37.5 36.625H32.25C31.0897 36.625 29.9769 36.1641 29.1564 35.3436C28.3359 34.5231 27.875 33.4103 27.875 32.25V31.375C27.8857 30.5 28.1477 29.6466 28.6297 28.9163C28.7195 28.7978 28.7777 28.6585 28.7988 28.5113C28.8198 28.3641 28.803 28.214 28.75 28.0752C28.5221 27.4874 28.4124 26.8604 28.4272 26.2302C28.4421 25.5999 28.5811 24.9788 28.8364 24.4024C29.5525 24.4794 30.2421 24.7166 30.854 25.0964C31.466 25.4762 31.9846 25.9889 32.3714 26.5964C32.4502 26.7197 32.5587 26.8212 32.6869 26.8917C32.8151 26.9622 32.959 26.9995 33.1053 27H36.6436C36.7905 27 36.935 26.9631 37.0638 26.8925C37.1926 26.822 37.3017 26.7202 37.3808 26.5964C37.7676 25.9888 38.2862 25.4761 38.8981 25.0963C39.5101 24.7165 40.1997 24.4793 40.9158 24.4024C41.1707 24.9789 41.3094 25.6001 41.3239 26.2304C41.3383 26.8606 41.2283 27.4875 41 28.0752C40.9471 28.2127 40.9294 28.3613 40.9485 28.5074C40.9676 28.6535 41.0229 28.7926 41.1094 28.9119C41.5962 29.6422 41.862 30.4974 41.875 31.375V32.25Z" fill="#878EA1"/>
</g>
<path d="M65.888 40.224C64.8427 40.224 63.9253 40.0373 63.136 39.664C62.3573 39.2907 61.7493 38.6987 61.312 37.888C60.8853 37.0667 60.672 35.9947 60.672 34.672C60.672 33.3707 60.8853 32.3093 61.312 31.488C61.7493 30.6667 62.3573 30.064 63.136 29.68C63.9253 29.2853 64.8427 29.088 65.888 29.088C66.56 29.088 67.216 29.1573 67.856 29.296C68.496 29.4347 69.1093 29.6267 69.696 29.872V32.224C69.056 31.8933 68.4587 31.6267 67.904 31.424C67.36 31.2213 66.7947 31.12 66.208 31.12C65.6 31.12 65.0773 31.2267 64.64 31.44C64.2133 31.6533 63.888 32.0213 63.664 32.544C63.44 33.056 63.328 33.76 63.328 34.656C63.328 35.5413 63.44 36.2453 63.664 36.768C63.8987 37.28 64.224 37.648 64.64 37.872C65.056 38.096 65.5413 38.208 66.096 38.208C66.384 38.208 66.6507 38.192 66.896 38.16C67.152 38.1173 67.376 38.048 67.568 37.952V36.064H65.808V34.048H70.16V39.072C69.4987 39.4347 68.8053 39.7173 68.08 39.92C67.3653 40.1227 66.6347 40.224 65.888 40.224ZM72.4009 40V32.016H74.7849L74.8009 40H72.4009ZM72.3529 30.8V28.96H74.8169V30.8H72.3529ZM80.243 40.32C79.3043 40.32 78.6057 40.1013 78.147 39.664C77.6883 39.216 77.459 38.5867 77.459 37.776V33.728H76.275V31.904H77.459V29.68H79.955V31.904H81.731V33.728H79.955V37.472C79.955 37.7493 80.0137 37.9573 80.131 38.096C80.2483 38.224 80.4457 38.288 80.723 38.288C80.883 38.288 81.059 38.256 81.251 38.192C81.443 38.128 81.603 38.048 81.731 37.952V40C81.507 40.1173 81.2617 40.1973 80.995 40.24C80.739 40.2933 80.4883 40.32 80.243 40.32ZM83.6204 40V29.328H86.2124V33.648H90.1324V29.328H92.7084V40H90.1324V35.76H86.2124V40H83.6204ZM98.7078 40.24C97.9611 40.24 97.2998 40.1227 96.7238 39.888C96.1478 39.6533 95.6998 39.296 95.3798 38.816C95.0598 38.3253 94.8997 37.6907 94.8997 36.912V31.904H97.2838V36.72C97.2838 37.232 97.3958 37.616 97.6198 37.872C97.8544 38.1173 98.2224 38.24 98.7238 38.24C99.2358 38.24 99.6038 38.1173 99.8278 37.872C100.052 37.616 100.164 37.232 100.164 36.72V31.904H102.404V36.912C102.404 38.064 102.073 38.9067 101.412 39.44C100.75 39.9733 99.8491 40.24 98.7078 40.24ZM108.221 40.24C107.773 40.24 107.325 40.208 106.877 40.144C106.44 40.0907 106.04 39.9893 105.677 39.84C105.325 39.68 105.042 39.4667 104.829 39.2C104.616 38.9227 104.509 38.5653 104.509 38.128V28.912H106.845V33.328L106.397 32.576C106.589 32.352 106.834 32.176 107.133 32.048C107.432 31.9093 107.736 31.8133 108.045 31.76C108.354 31.7067 108.61 31.68 108.813 31.68C110.008 31.68 110.914 32.0427 111.533 32.768C112.162 33.4827 112.477 34.5333 112.477 35.92C112.477 36.7307 112.37 37.4133 112.157 37.968C111.944 38.5227 111.645 38.9653 111.261 39.296C110.877 39.6267 110.429 39.8667 109.917 40.016C109.405 40.1653 108.84 40.24 108.221 40.24ZM108.189 38.256C108.658 38.256 109.032 38.1653 109.309 37.984C109.586 37.792 109.784 37.5307 109.901 37.2C110.029 36.8693 110.093 36.4907 110.093 36.064C110.093 35.456 110.013 34.9707 109.853 34.608C109.693 34.2453 109.474 33.984 109.197 33.824C108.92 33.664 108.6 33.584 108.237 33.584C108.024 33.584 107.789 33.6107 107.533 33.664C107.277 33.7173 107.048 33.8027 106.845 33.92V37.504C106.845 37.696 106.904 37.8453 107.021 37.952C107.138 38.0587 107.298 38.1387 107.501 38.192C107.714 38.2347 107.944 38.256 108.189 38.256Z" fill="#C0C4CE"/>
<path d="M375.625 29V37.125C375.625 37.2908 375.559 37.4497 375.442 37.5669C375.325 37.6842 375.166 37.75 375 37.75C374.834 37.75 374.675 37.6842 374.558 37.5669C374.441 37.4497 374.375 37.2908 374.375 37.125V30.5086L365.442 39.4422C365.325 39.5595 365.166 39.6253 365 39.6253C364.834 39.6253 364.675 39.5595 364.558 39.4422C364.441 39.3249 364.375 39.1659 364.375 39C364.375 38.8341 364.441 38.6751 364.558 38.5578L373.491 29.625H366.875C366.709 29.625 366.55 29.5592 366.433 29.4419C366.316 29.3247 366.25 29.1658 366.25 29C366.25 28.8342 366.316 28.6753 366.433 28.5581C366.55 28.4408 366.709 28.375 366.875 28.375H375C375.166 28.375 375.325 28.4408 375.442 28.5581C375.559 28.6753 375.625 28.8342 375.625 29Z" fill="#3996DB"/>
<defs>
<clipPath id="clip0_2149_2299">
<rect width="28" height="28" fill="white" transform="translate(20 20)"/>
</clipPath>
</defs>
</svg>
