<svg width="400" height="68" viewBox="0 0 400 68" fill="none" xmlns="http://www.w3.org/2000/svg">
<rect width="400" height="68" rx="8" fill="#292C34"/>
<path d="M34 28.75C32.9616 28.75 31.9466 29.0579 31.0833 29.6348C30.2199 30.2117 29.547 31.0316 29.1496 31.9909C28.7523 32.9502 28.6483 34.0058 28.8509 35.0242C29.0535 36.0426 29.5535 36.9781 30.2877 37.7123C31.0219 38.4465 31.9574 38.9466 32.9758 39.1491C33.9942 39.3517 35.0498 39.2477 36.0091 38.8504C36.9684 38.453 37.7883 37.7801 38.3652 36.9167C38.9421 36.0534 39.25 35.0384 39.25 34C39.2486 32.6081 38.695 31.2735 37.7107 30.2893C36.7265 29.305 35.3919 28.7514 34 28.75ZM34 37.5C33.3078 37.5 32.6311 37.2947 32.0555 36.9101C31.4799 36.5256 31.0313 35.9789 30.7664 35.3394C30.5015 34.6999 30.4322 33.9961 30.5673 33.3172C30.7023 32.6383 31.0356 32.0146 31.5251 31.5251C32.0146 31.0356 32.6383 30.7023 33.3172 30.5673C33.9961 30.4322 34.6999 30.5015 35.3394 30.7664C35.9789 31.0313 36.5256 31.4799 36.9101 32.0555C37.2947 32.6311 37.5 33.3078 37.5 34C37.5 34.9283 37.1313 35.8185 36.4749 36.4749C35.8185 37.1313 34.9283 37.5 34 37.5ZM39.25 22.625H28.75C27.1261 22.6267 25.5692 23.2726 24.4209 24.4209C23.2726 25.5692 22.6267 27.1261 22.625 28.75V39.25C22.6267 40.8739 23.2726 42.4308 24.4209 43.5791C25.5692 44.7274 27.1261 45.3733 28.75 45.375H39.25C40.8739 45.3733 42.4308 44.7274 43.5791 43.5791C44.7274 42.4308 45.3733 40.8739 45.375 39.25V28.75C45.3733 27.1261 44.7274 25.5692 43.5791 24.4209C42.4308 23.2726 40.8739 22.6267 39.25 22.625ZM43.625 39.25C43.625 40.4103 43.1641 41.5231 42.3436 42.3436C41.5231 43.1641 40.4103 43.625 39.25 43.625H28.75C27.5897 43.625 26.4769 43.1641 25.6564 42.3436C24.8359 41.5231 24.375 40.4103 24.375 39.25V28.75C24.375 27.5897 24.8359 26.4769 25.6564 25.6564C26.4769 24.8359 27.5897 24.375 28.75 24.375H39.25C40.4103 24.375 41.5231 24.8359 42.3436 25.6564C43.1641 26.4769 43.625 27.5897 43.625 28.75V39.25ZM41 28.3125C41 28.5721 40.923 28.8258 40.7788 29.0417C40.6346 29.2575 40.4296 29.4258 40.1898 29.5251C39.9499 29.6244 39.686 29.6504 39.4314 29.5998C39.1768 29.5491 38.943 29.4241 38.7594 29.2406C38.5759 29.057 38.4509 28.8232 38.4002 28.5686C38.3496 28.314 38.3756 28.0501 38.4749 27.8102C38.5742 27.5704 38.7425 27.3654 38.9583 27.2212C39.1742 27.077 39.4279 27 39.6875 27C40.0356 27 40.3694 27.1383 40.6156 27.3844C40.8617 27.6306 41 27.9644 41 28.3125Z" fill="#878EA1"/>
<path d="M61.136 40V29.328H63.728V40H61.136ZM65.9154 32.592C66.118 32.4853 66.3847 32.3787 66.7154 32.272C67.046 32.1547 67.4087 32.0533 67.8034 31.968C68.198 31.8827 68.5927 31.8133 68.9874 31.76C69.3927 31.7067 69.766 31.68 70.1074 31.68C70.8327 31.68 71.4514 31.776 71.9634 31.968C72.4754 32.1493 72.8647 32.448 73.1314 32.864C73.4087 33.28 73.5474 33.8453 73.5474 34.56V40H71.1634V35.04C71.1634 34.8373 71.1314 34.6507 71.0674 34.48C71.014 34.3093 70.9287 34.1653 70.8114 34.048C70.694 33.92 70.534 33.824 70.3314 33.76C70.1287 33.6853 69.8834 33.648 69.5954 33.648C69.35 33.648 69.1047 33.68 68.8594 33.744C68.614 33.7973 68.4274 33.856 68.2994 33.92V40H65.9154V32.592ZM78.0654 40.24C77.4894 40.24 76.9934 40.176 76.5774 40.048C76.172 39.9307 75.788 39.7973 75.4254 39.648V37.552C75.6494 37.7013 75.9 37.856 76.1774 38.016C76.4547 38.1653 76.7587 38.288 77.0894 38.384C77.4307 38.48 77.788 38.528 78.1614 38.528C78.5454 38.528 78.812 38.464 78.9614 38.336C79.1214 38.1973 79.2014 38.032 79.2014 37.84C79.2014 37.6587 79.1214 37.5147 78.9614 37.408C78.8014 37.2907 78.5934 37.1947 78.3374 37.12C78.0814 37.0453 77.8094 36.976 77.5214 36.912C77.2654 36.8587 77.0094 36.7787 76.7534 36.672C76.4974 36.5547 76.268 36.4 76.0654 36.208C75.8627 36.016 75.6974 35.7813 75.5694 35.504C75.452 35.216 75.3934 34.8693 75.3934 34.464C75.3934 33.9413 75.4947 33.5093 75.6974 33.168C75.9 32.816 76.1667 32.5333 76.4974 32.32C76.828 32.1067 77.1854 31.9573 77.5694 31.872C77.9534 31.776 78.3267 31.7333 78.6894 31.744C79.3507 31.7653 79.8734 31.84 80.2574 31.968C80.652 32.0853 81.0094 32.24 81.3294 32.432V34.304C80.9667 34.1013 80.604 33.9147 80.2414 33.744C79.8894 33.5627 79.484 33.472 79.0254 33.472C78.6094 33.472 78.3107 33.536 78.1294 33.664C77.948 33.792 77.8574 33.9627 77.8574 34.176C77.8574 34.3787 77.916 34.5387 78.0334 34.656C78.1614 34.7733 78.3267 34.8693 78.5294 34.944C78.732 35.008 78.956 35.072 79.2014 35.136C79.468 35.2 79.74 35.28 80.0174 35.376C80.3054 35.4613 80.572 35.5893 80.8174 35.76C81.0734 35.92 81.276 36.1493 81.4254 36.448C81.5854 36.736 81.6654 37.12 81.6654 37.6C81.6547 38.2507 81.4787 38.7733 81.1374 39.168C80.796 39.552 80.3534 39.8293 79.8094 40C79.276 40.16 78.6947 40.24 78.0654 40.24ZM86.6961 40.32C85.7575 40.32 85.0588 40.1013 84.6001 39.664C84.1415 39.216 83.9121 38.5867 83.9121 37.776V33.728H82.7281V31.904H83.9121V29.68H86.4081V31.904H88.1841V33.728H86.4081V37.472C86.4081 37.7493 86.4668 37.9573 86.5841 38.096C86.7015 38.224 86.8988 38.288 87.1761 38.288C87.3361 38.288 87.5121 38.256 87.7041 38.192C87.8961 38.128 88.0561 38.048 88.1841 37.952V40C87.9601 40.1173 87.7148 40.1973 87.4481 40.24C87.1921 40.2933 86.9415 40.32 86.6961 40.32ZM93.1135 40.24C92.6228 40.24 92.1588 40.192 91.7215 40.096C91.2948 40.0107 90.9162 39.8667 90.5855 39.664C90.2655 39.4507 90.0148 39.168 89.8335 38.816C89.6522 38.4533 89.5615 38.0053 89.5615 37.472C89.5615 36.9707 89.6628 36.5333 89.8655 36.16C90.0788 35.7867 90.3988 35.4987 90.8255 35.296C91.2522 35.0933 91.7908 34.992 92.4415 34.992C92.8042 34.992 93.1562 35.0293 93.4975 35.104C93.8388 35.1787 94.1428 35.28 94.4095 35.408C94.6868 35.536 94.9055 35.6747 95.0655 35.824L95.1615 36.976C94.9482 36.848 94.6922 36.7467 94.3935 36.672C94.0948 36.5973 93.7748 36.56 93.4335 36.56C92.9108 36.56 92.5268 36.64 92.2815 36.8C92.0468 36.9493 91.9295 37.1893 91.9295 37.52C91.9295 37.7227 91.9882 37.904 92.1055 38.064C92.2228 38.224 92.3775 38.3467 92.5695 38.432C92.7722 38.5173 92.9802 38.56 93.1935 38.56C93.7375 38.56 94.1162 38.5227 94.3295 38.448C94.5535 38.3733 94.6655 38.224 94.6655 38V35.024C94.6655 34.5333 94.5055 34.1813 94.1855 33.968C93.8762 33.744 93.4335 33.632 92.8575 33.632C92.3882 33.632 91.9135 33.7173 91.4335 33.888C90.9642 34.048 90.5802 34.2453 90.2815 34.48V32.368C90.5588 32.1973 90.9855 32.0373 91.5615 31.888C92.1482 31.7387 92.8042 31.664 93.5295 31.664C93.7855 31.664 94.0682 31.6853 94.3775 31.728C94.6868 31.7707 94.9962 31.8507 95.3055 31.968C95.6148 32.0747 95.8975 32.2347 96.1535 32.448C96.4202 32.6613 96.6335 32.9333 96.7935 33.264C96.9535 33.5947 97.0335 34.0053 97.0335 34.496L97.0175 38.32C97.0175 38.7787 96.8628 39.152 96.5535 39.44C96.2442 39.7173 95.7962 39.92 95.2095 40.048C94.6335 40.176 93.9348 40.24 93.1135 40.24ZM102.254 40.24C101.518 40.1973 100.883 40.0267 100.35 39.728C99.8271 39.4293 99.4164 38.992 99.1178 38.416C98.8298 37.8293 98.6858 37.0933 98.6858 36.208C98.6858 35.312 98.7978 34.5707 99.0218 33.984C99.2458 33.3867 99.5551 32.9227 99.9498 32.592C100.355 32.2613 100.84 32.0267 101.406 31.888C101.971 31.7493 102.6 31.68 103.294 31.68C103.966 31.68 104.552 31.7653 105.054 31.936C105.555 32.1067 105.944 32.352 106.222 32.672C106.499 32.992 106.638 33.3867 106.638 33.856V40.096C106.638 40.6613 106.547 41.1573 106.366 41.584C106.184 42.0213 105.912 42.384 105.55 42.672C105.198 42.9707 104.766 43.1947 104.254 43.344C103.752 43.4933 103.171 43.568 102.51 43.568C101.795 43.568 101.182 43.5147 100.67 43.408C100.168 43.312 99.7844 43.1893 99.5178 43.04V40.944C99.6778 41.008 99.9124 41.0933 100.222 41.2C100.531 41.3067 100.878 41.392 101.262 41.456C101.646 41.5307 102.03 41.568 102.414 41.568C102.915 41.568 103.299 41.4987 103.566 41.36C103.843 41.2213 104.035 41.0347 104.142 40.8C104.248 40.5653 104.302 40.2987 104.302 40V38.688L104.766 39.024C104.595 39.2693 104.392 39.4827 104.158 39.664C103.923 39.8453 103.646 39.984 103.326 40.08C103.016 40.1867 102.659 40.24 102.254 40.24ZM102.862 38.448C103.139 38.448 103.395 38.4213 103.63 38.368C103.864 38.304 104.088 38.2133 104.302 38.096V34.384C104.302 34.16 104.238 33.9893 104.11 33.872C103.982 33.7547 103.822 33.6747 103.63 33.632C103.438 33.5893 103.235 33.568 103.022 33.568C102.531 33.568 102.142 33.6747 101.854 33.888C101.576 34.1013 101.374 34.4 101.246 34.784C101.128 35.1573 101.07 35.584 101.07 36.064C101.07 36.8 101.235 37.3813 101.566 37.808C101.896 38.2347 102.328 38.448 102.862 38.448ZM108.634 40V32.752C108.783 32.624 109.05 32.48 109.434 32.32C109.818 32.1493 110.255 32 110.746 31.872C111.247 31.7333 111.749 31.664 112.25 31.664C112.751 31.664 113.146 31.7013 113.434 31.776C113.722 31.8507 113.941 31.9467 114.09 32.064V33.808C113.909 33.7653 113.679 33.7333 113.402 33.712C113.125 33.6907 112.837 33.68 112.538 33.68C112.239 33.6693 111.957 33.6693 111.69 33.68C111.423 33.6907 111.199 33.712 111.018 33.744V40H108.634ZM118.598 40.24C118.107 40.24 117.643 40.192 117.206 40.096C116.779 40.0107 116.401 39.8667 116.07 39.664C115.75 39.4507 115.499 39.168 115.318 38.816C115.137 38.4533 115.046 38.0053 115.046 37.472C115.046 36.9707 115.147 36.5333 115.35 36.16C115.563 35.7867 115.883 35.4987 116.31 35.296C116.737 35.0933 117.275 34.992 117.926 34.992C118.289 34.992 118.641 35.0293 118.982 35.104C119.323 35.1787 119.627 35.28 119.894 35.408C120.171 35.536 120.39 35.6747 120.55 35.824L120.646 36.976C120.433 36.848 120.177 36.7467 119.878 36.672C119.579 36.5973 119.259 36.56 118.918 36.56C118.395 36.56 118.011 36.64 117.766 36.8C117.531 36.9493 117.414 37.1893 117.414 37.52C117.414 37.7227 117.473 37.904 117.59 38.064C117.707 38.224 117.862 38.3467 118.054 38.432C118.257 38.5173 118.465 38.56 118.678 38.56C119.222 38.56 119.601 38.5227 119.814 38.448C120.038 38.3733 120.15 38.224 120.15 38V35.024C120.15 34.5333 119.99 34.1813 119.67 33.968C119.361 33.744 118.918 33.632 118.342 33.632C117.873 33.632 117.398 33.7173 116.918 33.888C116.449 34.048 116.065 34.2453 115.766 34.48V32.368C116.043 32.1973 116.47 32.0373 117.046 31.888C117.633 31.7387 118.289 31.664 119.014 31.664C119.27 31.664 119.553 31.6853 119.862 31.728C120.171 31.7707 120.481 31.8507 120.79 31.968C121.099 32.0747 121.382 32.2347 121.638 32.448C121.905 32.6613 122.118 32.9333 122.278 33.264C122.438 33.5947 122.518 34.0053 122.518 34.496L122.502 38.32C122.502 38.7787 122.347 39.152 122.038 39.44C121.729 39.7173 121.281 39.92 120.694 40.048C120.118 40.176 119.419 40.24 118.598 40.24ZM132.154 34.56V40H129.77V35.04C129.77 34.8373 129.738 34.6507 129.674 34.48C129.621 34.3093 129.535 34.1653 129.418 34.048C129.301 33.92 129.141 33.824 128.938 33.76C128.735 33.6853 128.49 33.648 128.202 33.648C127.957 33.648 127.727 33.68 127.514 33.744C127.311 33.7973 127.146 33.856 127.018 33.92V40H124.634V32.592C124.837 32.4853 125.103 32.3787 125.434 32.272C125.765 32.1547 126.127 32.0533 126.522 31.968C126.917 31.8827 127.311 31.8133 127.706 31.76C128.111 31.7067 128.485 31.68 128.826 31.68C129.551 31.68 130.159 31.776 130.65 31.968C131.151 32.1493 131.525 32.448 131.77 32.864C132.026 33.28 132.154 33.8453 132.154 34.56ZM129.706 33.136C130.037 32.848 130.437 32.5973 130.906 32.384C131.375 32.16 131.871 31.9893 132.394 31.872C132.917 31.744 133.402 31.68 133.85 31.68C134.575 31.68 135.183 31.776 135.674 31.968C136.175 32.1493 136.549 32.448 136.794 32.864C137.05 33.28 137.178 33.8453 137.178 34.56V40H134.794V35.04C134.794 34.8373 134.762 34.6507 134.698 34.48C134.645 34.3093 134.559 34.1653 134.442 34.048C134.325 33.92 134.165 33.824 133.962 33.76C133.759 33.6853 133.514 33.648 133.226 33.648C132.981 33.648 132.751 33.6853 132.538 33.76C132.335 33.824 132.17 33.9093 132.042 34.016L129.706 33.136Z" fill="#C0C4CE"/>
<path d="M375.625 29V37.125C375.625 37.2908 375.559 37.4497 375.442 37.5669C375.325 37.6842 375.166 37.75 375 37.75C374.834 37.75 374.675 37.6842 374.558 37.5669C374.441 37.4497 374.375 37.2908 374.375 37.125V30.5086L365.442 39.4422C365.325 39.5595 365.166 39.6253 365 39.6253C364.834 39.6253 364.675 39.5595 364.558 39.4422C364.441 39.3249 364.375 39.1659 364.375 39C364.375 38.8341 364.441 38.6751 364.558 38.5578L373.491 29.625H366.875C366.709 29.625 366.55 29.5592 366.433 29.4419C366.316 29.3247 366.25 29.1658 366.25 29C366.25 28.8342 366.316 28.6753 366.433 28.5581C366.55 28.4408 366.709 28.375 366.875 28.375H375C375.166 28.375 375.325 28.4408 375.442 28.5581C375.559 28.6753 375.625 28.8342 375.625 29Z" fill="#3996DB"/>
</svg>
