<svg width="404" height="72" viewBox="0 0 404 72" fill="none" xmlns="http://www.w3.org/2000/svg">
<rect x="1.25" y="1.25" width="401.5" height="69.5" rx="8.75" fill="#292C34"/>
<rect x="1.25" y="1.25" width="401.5" height="69.5" rx="8.75" stroke="#3996DB" stroke-width="1.5"/>
<path d="M45.625 24.625H26.375C25.9109 24.625 25.4658 24.8094 25.1376 25.1376C24.8094 25.4658 24.625 25.9109 24.625 26.375V45.625C24.625 46.0891 24.8094 46.5342 25.1376 46.8624C25.4658 47.1906 25.9109 47.375 26.375 47.375H45.625C46.0891 47.375 46.5342 47.1906 46.8624 46.8624C47.1906 46.5342 47.375 46.0891 47.375 45.625V26.375C47.375 25.9109 47.1906 25.4658 46.8624 25.1376C46.5342 24.8094 46.0891 24.625 45.625 24.625ZM45.625 45.625H26.375V26.375H45.625V45.625ZM32.5 34.25V41.25C32.5 41.4821 32.4078 41.7046 32.2437 41.8687C32.0796 42.0328 31.8571 42.125 31.625 42.125C31.3929 42.125 31.1704 42.0328 31.0063 41.8687C30.8422 41.7046 30.75 41.4821 30.75 41.25V34.25C30.75 34.0179 30.8422 33.7954 31.0063 33.6313C31.1704 33.4672 31.3929 33.375 31.625 33.375C31.8571 33.375 32.0796 33.4672 32.2437 33.6313C32.4078 33.7954 32.5 34.0179 32.5 34.25ZM42.125 37.3125V41.25C42.125 41.4821 42.0328 41.7046 41.8687 41.8687C41.7046 42.0328 41.4821 42.125 41.25 42.125C41.0179 42.125 40.7954 42.0328 40.6313 41.8687C40.4672 41.7046 40.375 41.4821 40.375 41.25V37.3125C40.375 36.7323 40.1445 36.1759 39.7343 35.7657C39.3241 35.3555 38.7677 35.125 38.1875 35.125C37.6073 35.125 37.0509 35.3555 36.6407 35.7657C36.2305 36.1759 36 36.7323 36 37.3125V41.25C36 41.4821 35.9078 41.7046 35.7437 41.8687C35.5796 42.0328 35.3571 42.125 35.125 42.125C34.8929 42.125 34.6704 42.0328 34.5063 41.8687C34.3422 41.7046 34.25 41.4821 34.25 41.25V34.25C34.2511 34.0357 34.3308 33.8292 34.474 33.6697C34.6172 33.5103 34.814 33.4089 35.027 33.3849C35.24 33.3609 35.4543 33.4159 35.6295 33.5395C35.8046 33.6631 35.9283 33.8466 35.977 34.0553C36.569 33.6538 37.2591 33.421 37.9733 33.3821C38.6875 33.3432 39.3988 33.4996 40.0309 33.8344C40.6629 34.1693 41.1918 34.67 41.5607 35.2828C41.9297 35.8955 42.1248 36.5972 42.125 37.3125ZM32.9375 31.1875C32.9375 31.4471 32.8605 31.7008 32.7163 31.9167C32.5721 32.1325 32.3671 32.3008 32.1273 32.4001C31.8874 32.4994 31.6235 32.5254 31.3689 32.4748C31.1143 32.4241 30.8805 32.2991 30.6969 32.1156C30.5134 31.932 30.3884 31.6982 30.3377 31.4436C30.2871 31.189 30.3131 30.9251 30.4124 30.6852C30.5117 30.4454 30.68 30.2404 30.8958 30.0962C31.1117 29.952 31.3654 29.875 31.625 29.875C31.9731 29.875 32.3069 30.0133 32.5531 30.2594C32.7992 30.5056 32.9375 30.8394 32.9375 31.1875Z" fill="#3996DB"/>
<path d="M63.264 42V31.328H65.04V40.496H70.128V42H63.264ZM71.8101 42V34.016H73.4901L73.5061 42H71.8101ZM71.7621 32.688V31.168H73.5541V32.688H71.7621ZM75.9184 34.624C76.153 34.5067 76.4144 34.4 76.7024 34.304C77.001 34.1973 77.3157 34.1067 77.6464 34.032C77.977 33.9573 78.313 33.8987 78.6544 33.856C78.9957 33.8133 79.3264 33.792 79.6464 33.792C80.4037 33.792 81.0224 33.8987 81.5024 34.112C81.9824 34.3147 82.3397 34.6347 82.5744 35.072C82.809 35.4987 82.9264 36.0373 82.9264 36.688V42H81.2464V36.912C81.2464 36.7093 81.2197 36.512 81.1664 36.32C81.1237 36.1173 81.033 35.936 80.8944 35.776C80.7664 35.6053 80.5744 35.472 80.3184 35.376C80.073 35.28 79.7477 35.232 79.3424 35.232C79.0544 35.232 78.7557 35.2587 78.4464 35.312C78.1477 35.3653 77.865 35.44 77.5984 35.536V42H75.9184V34.624ZM86.6054 37.344L89.8854 33.968H91.9494L87.3254 38.368L86.6054 37.344ZM86.9574 42H85.2934V30.928H86.9734L86.9574 42ZM87.7094 36.8L92.3494 42H90.1894L86.5254 37.92L87.7094 36.8ZM96.7025 42.24C95.9132 42.24 95.2252 42.08 94.6385 41.76C94.0625 41.44 93.6145 40.9653 93.2945 40.336C92.9852 39.7067 92.8305 38.9387 92.8305 38.032C92.8305 36.6347 93.1558 35.5787 93.8065 34.864C94.4678 34.1387 95.3852 33.776 96.5585 33.776C97.4225 33.776 98.1212 33.968 98.6545 34.352C99.1878 34.736 99.5718 35.2747 99.8065 35.968C100.052 36.6507 100.169 37.4507 100.159 38.368H93.8385L93.7905 37.12H98.8785L98.4785 37.52C98.4465 36.6987 98.2758 36.1013 97.9665 35.728C97.6572 35.344 97.1718 35.152 96.5105 35.152C96.0838 35.152 95.7212 35.2427 95.4225 35.424C95.1238 35.5947 94.8945 35.8933 94.7345 36.32C94.5852 36.736 94.5105 37.312 94.5105 38.048C94.5105 38.944 94.7185 39.6267 95.1345 40.096C95.5505 40.5547 96.1638 40.784 96.9745 40.784C97.3372 40.784 97.6732 40.752 97.9825 40.688C98.3025 40.624 98.5958 40.544 98.8625 40.448C99.1292 40.3413 99.3585 40.24 99.5505 40.144V41.696C99.1772 41.856 98.7558 41.984 98.2865 42.08C97.8172 42.1867 97.2892 42.24 96.7025 42.24ZM105.642 42.24C105.152 42.24 104.672 42.176 104.202 42.048C103.733 41.9307 103.306 41.7173 102.922 41.408C102.538 41.088 102.234 40.6453 102.01 40.08C101.786 39.5147 101.674 38.784 101.674 37.888C101.674 36.6187 101.984 35.616 102.602 34.88C103.221 34.144 104.16 33.776 105.418 33.776C105.621 33.776 105.872 33.8027 106.17 33.856C106.469 33.9093 106.773 33.9893 107.082 34.096C107.392 34.192 107.653 34.32 107.866 34.48L107.434 35.04V30.608H109.098V40.32C109.098 40.6507 108.992 40.9387 108.778 41.184C108.576 41.4293 108.304 41.632 107.962 41.792C107.621 41.9413 107.248 42.0533 106.842 42.128C106.437 42.2027 106.037 42.24 105.642 42.24ZM105.69 40.784C106.17 40.784 106.581 40.7253 106.922 40.608C107.264 40.4907 107.434 40.336 107.434 40.144V35.68C107.157 35.52 106.864 35.4027 106.554 35.328C106.245 35.2533 105.946 35.216 105.658 35.216C105.136 35.216 104.704 35.3227 104.362 35.536C104.032 35.7387 103.786 36.0427 103.626 36.448C103.466 36.8427 103.386 37.3333 103.386 37.92C103.386 38.4533 103.45 38.9387 103.578 39.376C103.706 39.8027 103.936 40.144 104.266 40.4C104.608 40.656 105.082 40.784 105.69 40.784ZM111.513 42V34.016H113.193L113.209 42H111.513ZM111.465 32.688V31.168H113.257V32.688H111.465ZM115.622 34.624C115.856 34.5067 116.118 34.4 116.406 34.304C116.704 34.1973 117.019 34.1067 117.35 34.032C117.68 33.9573 118.016 33.8987 118.358 33.856C118.699 33.8133 119.03 33.792 119.35 33.792C120.107 33.792 120.726 33.8987 121.206 34.112C121.686 34.3147 122.043 34.6347 122.278 35.072C122.512 35.4987 122.63 36.0373 122.63 36.688V42H120.95V36.912C120.95 36.7093 120.923 36.512 120.87 36.32C120.827 36.1173 120.736 35.936 120.598 35.776C120.47 35.6053 120.278 35.472 120.022 35.376C119.776 35.28 119.451 35.232 119.046 35.232C118.758 35.232 118.459 35.2587 118.15 35.312C117.851 35.3653 117.568 35.44 117.302 35.536V42H115.622V34.624Z" fill="#C0C4CE"/>
<path d="M377.625 31V39.125C377.625 39.2908 377.559 39.4497 377.442 39.5669C377.325 39.6842 377.166 39.75 377 39.75C376.834 39.75 376.675 39.6842 376.558 39.5669C376.441 39.4497 376.375 39.2908 376.375 39.125V32.5086L367.442 41.4422C367.325 41.5595 367.166 41.6253 367 41.6253C366.834 41.6253 366.675 41.5595 366.558 41.4422C366.441 41.3249 366.375 41.1659 366.375 41C366.375 40.8341 366.441 40.6751 366.558 40.5578L375.492 31.625H368.875C368.709 31.625 368.55 31.5592 368.433 31.4419C368.316 31.3247 368.25 31.1658 368.25 31C368.25 30.8342 368.316 30.6753 368.433 30.5581C368.55 30.4408 368.709 30.375 368.875 30.375H377C377.166 30.375 377.325 30.4408 377.442 30.5581C377.559 30.6753 377.625 30.8342 377.625 31Z" fill="#3996DB"/>
</svg>
