<svg width="400" height="68" viewBox="0 0 400 68" fill="none" xmlns="http://www.w3.org/2000/svg">
<rect width="400" height="68" rx="8" fill="#292C34"/>
<path d="M43.625 22.625H24.375C23.9109 22.625 23.4658 22.8094 23.1376 23.1376C22.8094 23.4658 22.625 23.9109 22.625 24.375V43.625C22.625 44.0891 22.8094 44.5342 23.1376 44.8624C23.4658 45.1906 23.9109 45.375 24.375 45.375H43.625C44.0891 45.375 44.5342 45.1906 44.8624 44.8624C45.1906 44.5342 45.375 44.0891 45.375 43.625V24.375C45.375 23.9109 45.1906 23.4658 44.8624 23.1376C44.5342 22.8094 44.0891 22.625 43.625 22.625ZM43.625 43.625H24.375V24.375H43.625V43.625ZM30.5 32.25V39.25C30.5 39.4821 30.4078 39.7046 30.2437 39.8687C30.0796 40.0328 29.8571 40.125 29.625 40.125C29.3929 40.125 29.1704 40.0328 29.0063 39.8687C28.8422 39.7046 28.75 39.4821 28.75 39.25V32.25C28.75 32.0179 28.8422 31.7954 29.0063 31.6313C29.1704 31.4672 29.3929 31.375 29.625 31.375C29.8571 31.375 30.0796 31.4672 30.2437 31.6313C30.4078 31.7954 30.5 32.0179 30.5 32.25ZM40.125 35.3125V39.25C40.125 39.4821 40.0328 39.7046 39.8687 39.8687C39.7046 40.0328 39.4821 40.125 39.25 40.125C39.0179 40.125 38.7954 40.0328 38.6313 39.8687C38.4672 39.7046 38.375 39.4821 38.375 39.25V35.3125C38.375 34.7323 38.1445 34.1759 37.7343 33.7657C37.3241 33.3555 36.7677 33.125 36.1875 33.125C35.6073 33.125 35.0509 33.3555 34.6407 33.7657C34.2305 34.1759 34 34.7323 34 35.3125V39.25C34 39.4821 33.9078 39.7046 33.7437 39.8687C33.5796 40.0328 33.3571 40.125 33.125 40.125C32.8929 40.125 32.6704 40.0328 32.5063 39.8687C32.3422 39.7046 32.25 39.4821 32.25 39.25V32.25C32.2511 32.0357 32.3308 31.8292 32.474 31.6697C32.6172 31.5103 32.814 31.4089 33.027 31.3849C33.24 31.3609 33.4543 31.4159 33.6295 31.5395C33.8046 31.6631 33.9283 31.8466 33.977 32.0553C34.569 31.6538 35.2591 31.421 35.9733 31.3821C36.6875 31.3432 37.3988 31.4996 38.0309 31.8344C38.6629 32.1693 39.1918 32.67 39.5607 33.2828C39.9297 33.8955 40.1248 34.5972 40.125 35.3125ZM30.9375 29.1875C30.9375 29.4471 30.8605 29.7008 30.7163 29.9167C30.5721 30.1325 30.3671 30.3008 30.1273 30.4001C29.8874 30.4994 29.6235 30.5254 29.3689 30.4748C29.1143 30.4241 28.8805 30.2991 28.6969 30.1156C28.5134 29.932 28.3884 29.6982 28.3377 29.4436C28.2871 29.189 28.3131 28.9251 28.4124 28.6852C28.5117 28.4454 28.68 28.2404 28.8958 28.0962C29.1117 27.952 29.3654 27.875 29.625 27.875C29.9731 27.875 30.3069 28.0133 30.5531 28.2594C30.7992 28.5056 30.9375 28.8394 30.9375 29.1875Z" fill="#878EA1"/>
<path d="M61.136 40V29.328H63.728V37.968H68.368V40H61.136ZM69.979 40V32.016H72.363L72.379 40H69.979ZM69.931 30.8V28.96H72.395V30.8H69.931ZM74.5091 32.592C74.7118 32.4853 74.9785 32.3787 75.3091 32.272C75.6398 32.1547 76.0025 32.0533 76.3971 31.968C76.7918 31.8827 77.1865 31.8133 77.5811 31.76C77.9865 31.7067 78.3598 31.68 78.7011 31.68C79.4265 31.68 80.0451 31.776 80.5571 31.968C81.0691 32.1493 81.4585 32.448 81.7251 32.864C82.0025 33.28 82.1411 33.8453 82.1411 34.56V40H79.7571V35.04C79.7571 34.8373 79.7251 34.6507 79.6611 34.48C79.6078 34.3093 79.5225 34.1653 79.4051 34.048C79.2878 33.92 79.1278 33.824 78.9251 33.76C78.7225 33.6853 78.4771 33.648 78.1891 33.648C77.9438 33.648 77.6985 33.68 77.4531 33.744C77.2078 33.7973 77.0211 33.856 76.8931 33.92V40H74.5091V32.592ZM86.1151 35.536L89.0911 31.904H91.9871L87.4911 36.656L86.1151 35.536ZM86.6271 40H84.2591V28.848H86.6591L86.6271 40ZM87.9231 34.496L92.1951 40H89.1711L86.2271 36.112L87.9231 34.496ZM96.5481 40.24C95.7375 40.24 95.0175 40.0747 94.3881 39.744C93.7695 39.4027 93.2841 38.9227 92.9321 38.304C92.5908 37.6747 92.4201 36.928 92.4201 36.064C92.4201 34.656 92.7668 33.568 93.4601 32.8C94.1641 32.0213 95.1668 31.632 96.4681 31.632C97.3641 31.632 98.0841 31.824 98.6281 32.208C99.1828 32.592 99.5881 33.152 99.8441 33.888C100.1 34.624 100.223 35.52 100.212 36.576H94.0521L93.7961 35.056H98.2441L97.8921 35.808C97.8815 34.944 97.7588 34.336 97.5241 33.984C97.2895 33.632 96.9055 33.456 96.3721 33.456C96.0735 33.456 95.8015 33.5307 95.5561 33.68C95.3215 33.8293 95.1348 34.08 94.9961 34.432C94.8681 34.7733 94.8041 35.248 94.8041 35.856C94.8041 36.624 94.9855 37.216 95.3481 37.632C95.7215 38.048 96.3135 38.256 97.1241 38.256C97.4228 38.256 97.7161 38.224 98.0041 38.16C98.3028 38.0853 98.5801 38 98.8361 37.904C99.0921 37.808 99.3108 37.7227 99.4921 37.648V39.696C99.1081 39.856 98.6761 39.984 98.1961 40.08C97.7268 40.1867 97.1775 40.24 96.5481 40.24ZM105.741 40.24C105.111 40.24 104.53 40.1707 103.997 40.032C103.474 39.8933 103.021 39.664 102.637 39.344C102.253 39.0133 101.949 38.5653 101.725 38C101.511 37.4347 101.405 36.7307 101.405 35.888C101.405 34.576 101.725 33.5413 102.365 32.784C103.015 32.0267 103.986 31.648 105.277 31.648C105.447 31.648 105.671 31.664 105.949 31.696C106.226 31.7173 106.514 31.7813 106.813 31.888C107.111 31.9947 107.378 32.176 107.613 32.432L107.133 33.168V28.576H109.501V37.888C109.501 38.2827 109.394 38.6293 109.181 38.928C108.967 39.216 108.679 39.456 108.317 39.648C107.965 39.84 107.565 39.984 107.117 40.08C106.669 40.1867 106.21 40.24 105.741 40.24ZM105.837 38.24C106.221 38.24 106.53 38.192 106.765 38.096C107.01 37.9893 107.133 37.8347 107.133 37.632V33.904C106.941 33.7973 106.733 33.7173 106.509 33.664C106.295 33.6 106.087 33.568 105.885 33.568C105.437 33.568 105.058 33.6427 104.749 33.792C104.439 33.9413 104.205 34.192 104.045 34.544C103.895 34.896 103.821 35.3707 103.821 35.968C103.821 36.4373 103.885 36.8427 104.013 37.184C104.141 37.5147 104.349 37.776 104.637 37.968C104.935 38.1493 105.335 38.24 105.837 38.24ZM111.667 40V32.016H114.051L114.067 40H111.667ZM111.618 30.8V28.96H114.083V30.8H111.618ZM116.197 32.592C116.399 32.4853 116.666 32.3787 116.997 32.272C117.327 32.1547 117.69 32.0533 118.085 31.968C118.479 31.8827 118.874 31.8133 119.269 31.76C119.674 31.7067 120.047 31.68 120.389 31.68C121.114 31.68 121.733 31.776 122.245 31.968C122.757 32.1493 123.146 32.448 123.413 32.864C123.69 33.28 123.829 33.8453 123.829 34.56V40H121.445V35.04C121.445 34.8373 121.413 34.6507 121.349 34.48C121.295 34.3093 121.21 34.1653 121.093 34.048C120.975 33.92 120.815 33.824 120.613 33.76C120.41 33.6853 120.165 33.648 119.877 33.648C119.631 33.648 119.386 33.68 119.141 33.744C118.895 33.7973 118.709 33.856 118.581 33.92V40H116.197V32.592Z" fill="#C0C4CE"/>
<path d="M375.625 29V37.125C375.625 37.2908 375.559 37.4497 375.442 37.5669C375.325 37.6842 375.166 37.75 375 37.75C374.834 37.75 374.675 37.6842 374.558 37.5669C374.441 37.4497 374.375 37.2908 374.375 37.125V30.5086L365.442 39.4422C365.325 39.5595 365.166 39.6253 365 39.6253C364.834 39.6253 364.675 39.5595 364.558 39.4422C364.441 39.3249 364.375 39.1659 364.375 39C364.375 38.8341 364.441 38.6751 364.558 38.5578L373.491 29.625H366.875C366.709 29.625 366.55 29.5592 366.433 29.4419C366.316 29.3247 366.25 29.1658 366.25 29C366.25 28.8342 366.316 28.6753 366.433 28.5581C366.55 28.4408 366.709 28.375 366.875 28.375H375C375.166 28.375 375.325 28.4408 375.442 28.5581C375.559 28.6753 375.625 28.8342 375.625 29Z" fill="#3996DB"/>
</svg>
